Coordinates
version=1
nRows=8
nColumns=63
inDegrees=yes

Units are S.I. units (second, meters, Newtons, ...)
If the header above contains a line with 'inDegrees', this indicates whether rotational values are in degrees (yes) or radians (no).

endheader
time	pelvis_tilt	pelvis_list	pelvis_rotation	pelvis_tx	pelvis_ty	pelvis_tz	hip_flexion_r	hip_adduction_r	hip_rotation_r	knee_angle_r	knee_angle_r_beta	ankle_angle_r	subtalar_angle_r	mtp_angle_r	hip_flexion_l	hip_adduction_l	hip_rotation_l	knee_angle_l	knee_angle_l_beta	ankle_angle_l	subtalar_angle_l	mtp_angle_l	L5_S1_Flex_Ext	L5_S1_Lat_Bending	L5_S1_axial_rotation	L4_L5_Flex_Ext	L4_L5_Lat_Bending	L4_L5_axial_rotation	L3_L4_Flex_Ext	L3_L4_Lat_Bending	L3_L4_axial_rotation	L2_L3_Flex_Ext	L2_L3_Lat_Bending	L2_L3_axial_rotation	L1_L2_Flex_Ext	L1_L2_Lat_Bending	L1_L2_axial_rotation	L1_T12_Flex_Ext	L1_T12_Lat_Bending	L1_T12_axial_rotation	Abs_r3	Abs_r2	Abs_r1	Abs_t1	Abs_t2	neck_flexion	neck_bending	neck_rotation	arm_flex_r	arm_add_r	arm_rot_r	elbow_flex_r	pro_sup_r	wrist_flex_r	wrist_dev_r	arm_flex_l	arm_add_l	arm_rot_l	elbow_flex_l	pro_sup_l	wrist_flex_l	wrist_dev_l
      1.38983051	     -2.21689854	     -6.52323010	     85.06281760	      0.22130933	      0.83200768	      0.67910014	      4.34329261	     -3.28966407	    -15.17227957	     10.09409856	      0.17617525	     27.52377782	     18.10572876	      0.00000000	      2.95037104	     -1.04444291	      0.57255474	      8.74646100	      0.15265454	     24.69765712	     -0.11177377	      0.00000000	     -0.29853791	      0.07536516	      0.50078112	     -0.55441474	      0.10023566	      0.53207993	     -0.49046792	      0.18324284	      0.53207993	     -0.34119897	      0.18324284	      0.43818348	     -0.27722230	      0.15368463	      0.40688466	     -0.17058456	      0.11674063	      0.37558584	     -2.13242640	      0.85254571	      2.78519433	      0.00000000	      0.00000000	      2.65960294	     -4.97144031	     -7.25712820	     14.30335368	     -5.53227892	    137.88955239	     11.79400353	      6.68941703	     -5.91068471	     -7.20907546	      1.91637520	    -14.37249962	     55.10484599	     34.73766553	     88.02252053	    -12.20791617	     -3.68226952
      1.40677966	     -2.53353925	     -6.62117768	     84.44648220	      0.22333399	      0.83192819	      0.67899540	      4.55631234	     -3.50060570	    -14.44032633	     10.11728694	      0.17657997	     27.66472657	     18.03839386	      0.00000000	      2.90491085	     -0.80524222	      0.17299308	      8.55318896	      0.14928131	     24.66255586	     -0.31881048	      0.00000000	     -0.31290133	      0.02664501	      0.62805283	     -0.58108906	      0.03543787	      0.66730614	     -0.51406560	      0.06478468	      0.66730614	     -0.35761493	      0.06478468	      0.54954623	     -0.29056018	      0.05433451	      0.51029293	     -0.17879182	      0.04127312	      0.47103963	     -2.23502292	      0.30141371	      3.49304144	      0.00000000	      0.00000000	      3.68735149	     -5.97389189	     -5.41324777	     14.19552593	     -5.08273355	    135.54274425	     11.25398021	      6.03663281	     -5.69282848	     -8.48320379	      1.46278609	    -14.76088479	     52.86169267	     35.56665464	     87.95611373	    -10.73859350	     -3.59597767
      1.42372881	     -2.85557929	     -6.70770312	     83.89887549	      0.22517492	      0.83189110	      0.67883713	      4.74781966	     -3.71439172	    -13.80278799	     10.12634843	      0.17673812	     27.82479653	     18.01313682	      0.00000000	      2.88083337	     -0.54038544	     -0.10795388	      8.38691877	      0.14637935	     24.60431063	     -0.64272180	      0.00000000	     -0.33071078	     -0.01975279	      0.74723214	     -0.61416298	     -0.02627122	      0.79393415	     -0.54332473	     -0.04802694	      0.79393415	     -0.37796935	     -0.04802694	      0.65382812	     -0.30709803	     -0.04027990	      0.60712611	     -0.18896814	     -0.03059708	      0.56042411	     -2.36223400	     -0.22344755	      4.15588100	      0.00000000	      0.00000000	      4.94274822	     -6.91309465	     -3.46789672	     13.93765167	     -4.55231820	    133.86863237	     10.39997749	      5.24448452	     -5.55294727	    -10.53678852	      1.17577291	    -15.17391426	     51.45172194	     36.38141319	     87.69115005	     -9.95084480	     -3.69026886
      1.44067797	     -3.14958661	     -6.74937387	     83.28452336	      0.22687472	      0.83191733	      0.67841651	      4.85615870	     -3.89338936	    -13.05432984	     10.02665214	      0.17499809	     27.84214236	     17.96600033	      0.00000000	      2.82956205	     -0.29391477	     -0.40997023	      8.30525306	      0.14495401	     24.57161345	     -1.04031593	      0.00000000	     -0.34916219	     -0.05955066	      0.88328981	     -0.64842910	     -0.07920238	      0.93849542	     -0.57363856	     -0.14479149	      0.93849542	     -0.39905746	     -0.14479149	      0.77287858	     -0.32423201	     -0.12143572	      0.71767297	     -0.19951127	     -0.09224398	      0.66246735	     -2.49403058	     -0.67364903	      4.91259291	      0.00000000	      0.00000000	      6.10396655	     -7.77910328	     -1.94173821	     13.50955193	     -3.98897698	    132.43151646	      9.35297998	      4.48885350	     -5.50386360	    -12.35602614	      0.83506150	    -15.45915979	     49.89144388	     37.13017610	     87.44369781	     -9.06916469	     -3.72716597
      1.45762712	     -3.21553390	     -6.81907189	     83.02027495	      0.22803276	      0.83201877	      0.67821105	      4.85559790	     -3.82618580	    -12.77955706	      9.71532794	      0.16956446	     27.78661558	     18.03650999	      0.00000000	      2.90838949	     -0.29212927	     -0.51895255	      8.38452324	      0.14633754	     24.49992231	     -1.18301803	      0.00000000	     -0.36703957	     -0.07312438	      0.96766847	     -0.68162919	     -0.09725543	      1.02814775	     -0.60300932	     -0.17779462	      1.02814775	     -0.41948953	     -0.17779462	      0.84670991	     -0.34083295	     -0.14911524	      0.78623063	     -0.20972641	     -0.11326967	      0.72575135	     -2.62172697	     -0.82719762	      5.38188172	      0.00000000	      0.00000000	      7.20919679	     -8.38254581	     -1.09482309	     13.10408288	     -3.42578041	    131.84837369	      8.27394060	      4.07687634	     -5.72593208	    -13.07795270	      0.75529122	    -15.73995860	     49.30789583	     37.76227492	     87.25741803	     -8.81348074	     -3.97885313
      1.47457627	     -3.35844749	     -6.78819005	     82.51584142	      0.22880019	      0.83217053	      0.67762650	      4.80012243	     -3.89200627	    -12.17915107	      9.45156811	      0.16496098	     27.68336135	     18.07660348	      0.00000000	      2.85882340	     -0.14763970	     -0.92129480	      8.47835692	      0.14797524	     24.47857385	     -1.54082397	      0.00000000	     -0.38738889	     -0.08674488	      1.04206834	     -0.71941991	     -0.11537069	      1.10719761	     -0.63644121	     -0.21091151	      1.10719761	     -0.44274676	     -0.21091151	      0.91180980	     -0.35972932	     -0.17689017	      0.84668053	     -0.22135401	     -0.13436782	      0.78155126	     -2.76708010	     -0.98127547	      5.79567150	      0.00000000	      0.00000000	      7.97664838	     -8.51243862	     -0.19117311	     12.58348268	     -2.93977681	    131.49701132	      7.09893818	      3.72332688	     -5.76916379	    -13.94548479	      0.45778893	    -15.78972643	     48.33611776	     38.14873581	     87.01495444	     -8.54192652	     -4.24433637
      1.49152542	     -3.45666128	     -6.84475708	     81.51736110	      0.23010339	      0.83208541	      0.67701629	      4.97102034	     -3.85918189	    -10.87260906	      9.34250317	      0.16305744	     27.60452559	     17.74940931	      0.00000000	      2.73790660	     -0.05149999	     -1.36946277	      8.32768944	      0.14534560	     24.33291441	     -2.29460759	      0.00000000	     -0.38401554	     -0.09673997	      1.13569154	     -0.71315526	     -0.12866416	      1.20667227	     -0.63089913	     -0.23521356	      1.20667227	     -0.43889136	     -0.23521356	      0.99373010	     -0.35659683	     -0.19727215	      0.92274938	     -0.21942648	     -0.14985021	      0.85176866	     -2.74298460	     -1.09434190	      6.31637566	      0.00000000	      0.00000000	      8.25218003	     -7.93611360	      0.55265521	     12.31733100	     -2.39320174	    135.62690125	      5.49871295	      2.70730486	     -4.69480667	    -13.70129765	     -0.52722790	    -15.52990490	     45.26007925	     38.51651763	     87.73642869	     -7.42323031	     -4.21569179
      1.50847458	     -3.51014223	     -6.82695401	     81.07478077	      0.23049010	      0.83224092	      0.67639040	      4.87930549	     -3.85454619	    -10.44416815	      9.06132262	      0.15814991	     27.36691068	     17.66415672	      0.00000000	      2.73300782	     -0.00222046	     -1.78371428	      8.49187922	      0.14821125	     24.35493639	     -2.40740398	      0.00000000	     -0.39194741	     -0.10047223	      1.15439851	     -0.72788553	     -0.13362807	      1.22654842	     -0.64393040	     -0.24428819	      1.22654842	     -0.44795669	     -0.24428819	      1.01009869	     -0.36396236	     -0.20488298	      0.93794879	     -0.22395875	     -0.15563149	      0.86579888	     -2.79964114	     -1.13656201	      6.42041818	      0.00000000	      0.00000000	      8.05609805	     -7.28572248	      0.58491277	     12.08526924	     -2.04515369	    139.05794524	      4.28184310	      2.39646978	     -4.23373739	    -12.78474887	     -0.87541994	    -15.40078497	     44.49478997	     38.56452332	     87.82303028	     -7.79651779	     -4.49332928
